<svg xmlns="http://www.w3.org/2000/svg" xmlns:xlink="http://www.w3.org/1999/xlink" id="Layer_1" x="0" y="0" version="1.1" viewBox="0 0 20 20" style="enable-background:new 0 0 20 20" xml:space="preserve"><style type="text/css">.st0{fill-rule:evenodd;clip-rule:evenodd}</style><path d="M3.4,7.8C2.7,6.9,2.9,5.7,3.8,5L10,0l6.2,5c0.9,0.7,1,1.9,0.3,2.8c-0.7,0.9-1.9,1-2.8,0.3L12,6.7v5.3	c0,1.1-0.9,2-2,2c-1.1,0-2-0.9-2-2V6.7L6.2,8.1C5.4,8.8,4.1,8.7,3.4,7.8z" class="st0"/><path d="M4,12c1.1,0,2,0.9,2,2v2h8v-2c0-1.1,0.9-2,2-2s2,0.9,2,2v4c0,1.1-0.9,2-2,2H4c-1.1,0-2-0.9-2-2v-4	C2,12.9,2.9,12,4,12z" class="st0"/></svg>